<?xml version="1.0" encoding="UTF-8" standalone="no"?>
<!DOCTYPE svg PUBLIC "-//W3C//DTD SVG 1.1//EN" "http://www.w3.org/Graphics/SVG/1.1/DTD/svg11.dtd">
<svg version="1.1" xmlns="http://www.w3.org/2000/svg" xmlns:xlink="http://www.w3.org/1999/xlink" preserveAspectRatio="xMidYMid meet" viewBox="283.1169590643275 408.12280701754383 75.76608187134502 29.029239766081844" width="71.77" height="25.03"><defs><path d="M314.99 409.82C315.23 410.06 314.99 410.25 315.65 410.25C316.07 410.25 316.3 410.01 324.12 410.01C326.5 409.78 331.09 409.12 331.74 409.12C331.95 409.12 332.96 409.12 334.78 409.12L334.78 416.51C341.83 416.51 345.74 416.51 346.53 416.51C348.26 416.75 351.53 419.13 351.53 421.1C351.53 421.5 351.53 423.53 351.53 427.18L355.88 427.18L355.88 434.15L284.12 434.15L284.12 427.18L288.23 427.18C288.23 423.53 288.23 421.5 288.23 421.1C288.23 419.13 291.04 416.51 293.24 416.51C294.02 416.51 297.94 416.51 304.98 416.51L304.98 409.12L307.37 409.12C310.86 409.59 313.4 409.82 314.99 409.82Z" id="a1f6jnMtY9"></path></defs><g><g><use xlink:href="#a1f6jnMtY9" opacity="1" fill="#000000" fill-opacity="1"></use><g><use xlink:href="#a1f6jnMtY9" opacity="1" fill-opacity="0" stroke="#000000" stroke-width="1" stroke-opacity="0"></use></g></g></g></svg>